# xmcd
#
# Track frame offsets:
#	182
#	24220
#	49907
#	70832
#	83957
#	103307
#	128957
#	158732
#	183295
#	199232
#	222895
#
# Disc length: 3304 seconds
#
# Revision: 0
# Processed by: cddbd v1.5.2PL0 Copyright (c) Steve Scherf et al.
# Submitted via: audiograbber 1.83.01
#
DISCID=980ce60b
DTITLE=Joe McBride - Grace
DYEAR=1992
DGENRE=Smooth Jazz
TTITLE0=Se or Amor
TTITLE1=Twilight
TTITLE2=Sunny
TTITLE3=For All we Know
TTITLE4=Everlasting Love
TTITLE5=Central Expressway
TTITLE6=Clay and Ivory
TTITLE7=Grace
TTITLE8=Get on The Right Track
TTITLE9=Need Somebody to Love
TTITLE10=Chump Change
EXTD=
EXTT0=
EXTT1=
EXTT2=
EXTT3=
EXTT4=
EXTT5=
EXTT6=
EXTT7=
EXTT8=
EXTT9=
EXTT10=
PLAYORDER=
